<svg width="85" height="144" viewBox="0 0 85 144" fill="none" xmlns="http://www.w3.org/2000/svg">
<path d="M68.6808 97.2346C67.981 98.3256 66.9726 99.1838 65.7838 99.7001C65.1755 100.008 64.5345 100.245 63.873 100.409L63.5956 100.501L27.1827 108.484H26.967C26.283 108.63 25.5861 108.707 24.8867 108.715C23.8351 108.709 22.7924 108.521 21.8048 108.16C21.0919 107.971 20.4301 107.625 19.8677 107.148C19.3052 106.671 18.8562 106.074 18.5534 105.402C18.4211 104.956 18.383 104.487 18.4413 104.025C18.4997 103.564 18.6533 103.12 18.8924 102.72C19.6056 101.632 20.6164 100.77 21.8048 100.239C22.4175 99.9464 23.0575 99.7142 23.7156 99.5461L23.993 99.4536L42.7927 95.3547L44.7035 94.9386L60.4366 91.4868C61.1853 91.3203 61.9502 91.2376 62.7172 91.2403C63.0995 91.2578 63.4804 91.2989 63.8576 91.3636C64.5091 91.4326 65.1504 91.5774 65.7684 91.795C66.4822 91.9822 67.1449 92.3272 67.7076 92.8046C68.2703 93.282 68.7188 93.8796 69.0198 94.5533C69.1559 94.9989 69.196 95.4682 69.1376 95.9303C69.0791 96.3925 68.9235 96.837 68.6808 97.2346Z" fill="white"/>
<path d="M68.68 109.053C68.0964 109.912 67.345 110.644 66.4712 111.206C65.5973 111.767 64.6189 112.146 63.5949 112.32L56.9379 113.861L54.5802 114.369L28.6767 120.055L27.1358 120.394C26.8892 120.394 26.6426 120.394 26.4115 120.394C25.9036 120.495 25.3881 120.551 24.8705 120.564C21.7886 120.564 19.2152 119.208 18.568 117.251C18.4361 116.807 18.3982 116.341 18.4565 115.882C18.5149 115.423 18.6683 114.981 18.907 114.585C19.4924 113.724 20.2462 112.991 21.1228 112.429C21.9995 111.868 22.9808 111.49 24.0076 111.318L28.0603 110.424L36.7513 108.514L60.4359 103.321C61.1852 103.159 61.9501 103.082 62.7165 103.089C63.0993 103.099 63.4807 103.14 63.8568 103.213C64.5066 103.284 65.147 103.424 65.7676 103.629C66.4805 103.818 67.1423 104.164 67.7047 104.641C68.2672 105.118 68.7162 105.715 69.019 106.387C69.1529 106.83 69.1918 107.297 69.1334 107.756C69.075 108.215 68.9205 108.657 68.68 109.053Z" fill="white"/>
<path d="M68.9893 118.238C69.1238 118.682 69.1617 119.149 69.1006 119.609C69.0395 120.069 68.8807 120.51 68.6349 120.904C68.0512 121.763 67.2999 122.495 66.426 123.057C65.5521 123.618 64.5737 123.997 63.5497 124.171L62.1166 124.479L60.2674 124.895L27.9073 131.983L27.1214 132.153C26.7556 132.224 26.3845 132.265 26.0119 132.276C25.6194 132.345 25.2232 132.391 24.8254 132.415C21.7435 132.415 19.1701 131.043 18.5229 129.086C18.391 128.643 18.353 128.177 18.4114 127.718C18.4697 127.259 18.6232 126.817 18.8619 126.42C19.4473 125.56 20.201 124.826 21.0777 124.265C21.9543 123.703 22.9357 123.325 23.9624 123.154L25.6575 122.784L27.784 122.321L56.3072 116.065L58.3875 115.603L60.3907 115.171C61.1394 115.005 61.9043 114.922 62.6713 114.925C65.7995 114.925 68.3883 116.281 68.9893 118.238Z" fill="white"/>
<path d="M60.5124 126.944C60.5226 130.767 59.2192 134.476 56.8205 137.452C54.4217 140.428 51.0733 142.49 47.336 143.291C43.5986 144.093 39.6994 143.586 36.2912 141.856C32.8829 140.125 30.1728 137.276 28.6145 133.786L60.497 126.806C60.497 126.806 60.5124 126.898 60.5124 126.944Z" fill="white"/>
<path d="M74.5208 70.5297L71.4389 74.906C67.2475 80.8233 63.6108 85.9855 62.8095 89.9766C62.3673 89.8879 61.9192 89.8313 61.4689 89.8071C60.5614 89.8103 59.657 89.9136 58.7722 90.1153L43.4551 93.4746V83.0115L56.923 76.5703C57.1097 76.4805 57.2627 76.3333 57.3597 76.1503C57.4568 75.9674 57.4927 75.7581 57.4624 75.5532C57.4234 75.3501 57.3225 75.164 57.1735 75.0206C57.0245 74.8771 56.8347 74.7832 56.6303 74.7519L35.9814 72.2094L63.4875 65.3367C63.6979 65.2783 63.882 65.1496 64.009 64.9721C64.1361 64.7946 64.1985 64.5788 64.1859 64.3609C64.1733 64.1429 64.0865 63.9358 63.9398 63.7741C63.7931 63.6124 63.5954 63.5058 63.3797 63.4721L26.3966 58.3099L55.2896 53.3172C55.5098 53.2772 55.7089 53.1612 55.8522 52.9894C55.9956 52.8176 56.0741 52.601 56.0741 52.3772C56.0741 52.1535 55.9956 51.9368 55.8522 51.7651C55.7089 51.5933 55.5098 51.4773 55.2896 51.4372L28.5848 46.3829L62.7016 39.2328C62.9283 39.2036 63.1365 39.0929 63.2874 38.9213C63.4383 38.7497 63.5215 38.529 63.5215 38.3005C63.5215 38.072 63.4383 37.8514 63.2874 37.6798C63.1365 37.5082 62.9283 37.3975 62.7016 37.3683L35.4113 32.4526L42.8233 30.4031C43.0268 30.3487 43.2067 30.2286 43.3349 30.0614C43.4631 29.8942 43.5324 29.6893 43.5321 29.4786V22.4826C44.6698 22.2841 45.7018 21.6926 46.4481 20.8112C47.1944 19.9297 47.6076 18.8143 47.6157 17.6594C47.6157 16.3353 47.0896 15.0653 46.1533 14.129C45.217 13.1927 43.9471 12.6667 42.6229 12.6667C41.2988 12.6667 40.0289 13.1927 39.0926 14.129C38.1562 15.0653 37.6302 16.3353 37.6302 17.6594C37.6407 18.7976 38.0435 19.8974 38.7705 20.7733C39.4976 21.6491 40.5045 22.2474 41.6213 22.4672V28.7543L30.8346 31.7438C30.6273 31.7998 30.4454 31.9252 30.3192 32.099C30.193 32.2729 30.1302 32.4847 30.1412 32.6992C30.1511 32.9169 30.234 33.125 30.3765 33.29C30.5191 33.4549 30.713 33.567 30.9271 33.6083L57.5086 38.3699L23.5305 45.4891C23.3171 45.5378 23.1264 45.6571 22.9893 45.8277C22.8522 45.9983 22.7769 46.2103 22.7754 46.4291C22.7754 46.649 22.8525 46.8619 22.9933 47.0309C23.134 47.1998 23.3296 47.314 23.5459 47.3537L49.7422 52.331L20.0171 57.4778C19.7912 57.5147 19.5861 57.6314 19.4391 57.8067C19.292 57.9821 19.2128 58.2044 19.2158 58.4332C19.2142 58.6608 19.2967 58.881 19.4474 59.0516C19.5981 59.2222 19.8064 59.3312 20.0325 59.3578L58.2483 64.6895L30.511 71.6084C30.294 71.6621 30.1026 71.7901 29.9703 71.9704C29.838 72.1506 29.773 72.3715 29.7867 72.5946C29.8004 72.8179 29.8932 73.0291 30.0486 73.19C30.2039 73.3511 30.4116 73.4514 30.6343 73.473L53.1477 76.2467L42.0682 81.5476C41.9094 81.6301 41.7756 81.7537 41.6808 81.9054C41.5859 82.0572 41.5335 82.2316 41.5289 82.4105V93.8907L22.4672 98.0667V91.0399C22.2206 87.0026 18.245 81.3935 13.6529 74.906C12.6359 73.4575 11.6034 71.9936 10.571 70.5297C6.62613 64.7819 0 53.4867 0 42.4997C0 31.2281 4.47764 20.4181 12.4479 12.4479C20.4181 4.47764 31.2281 0 42.4997 0C53.7713 0 64.5812 4.47764 72.5515 12.4479C80.5217 20.4181 84.9993 31.2281 84.9993 42.4997C85.0764 53.4867 78.4657 64.7819 74.5208 70.5297Z" fill="white"/>
</svg>
