<svg width="101" height="142" viewBox="0 0 101 142" fill="none" xmlns="http://www.w3.org/2000/svg">
<path d="M75.1107 82.2275L93.8091 128.286L72.7755 123.882L72.8492 123.852L60.8376 141.672L42.1392 95.6138L75.1107 82.2275Z" fill="#F9F0F0"/>
<path d="M59.3201 95.9791L39.974 141.77L28.215 123.782L28.2877 123.813L7.19385 127.92L26.54 82.1299L59.3201 95.9791Z" fill="#F9F0F0"/>
<path d="M101 50.5019C101 53.1107 97.8163 55.4382 97.4231 57.936C97.0204 60.5007 99.3259 63.6949 98.5414 66.1104C97.7426 68.569 93.9945 69.7983 92.8351 72.0693C91.6632 74.3653 92.8628 78.1182 91.358 80.1864C89.8532 82.2547 85.9052 82.2767 84.0876 84.0895C82.27 85.9023 82.2623 89.8466 80.1845 91.36C78.1067 92.8734 74.3624 91.6651 72.0674 92.837C69.7964 93.9964 68.5671 97.7446 66.1085 98.5434C63.693 99.3278 60.4988 97.0223 57.934 97.425C55.4362 97.8182 53.1078 101.002 50.5 101.002C47.8922 101.002 45.5637 97.8182 43.066 97.425C40.5012 97.0223 37.307 99.3278 34.8915 98.5434C32.4329 97.7446 31.2036 93.9964 28.9326 92.837C26.6366 91.6651 22.8838 92.8647 20.8155 91.36C18.7472 89.8552 18.7252 85.9071 16.9124 84.0895C15.0996 82.2719 11.1563 82.2642 9.64196 80.1864C8.1276 78.1086 9.33679 74.3643 8.16491 72.0693C7.00546 69.7983 3.25735 68.569 2.45856 66.1104C1.67411 63.6949 3.97961 60.5007 3.57687 57.936C3.18369 55.4382 0 53.1107 0 50.5019C0 47.8932 3.18369 45.5657 3.57687 43.0679C3.97961 40.5031 1.67411 37.3099 2.45856 34.8934C3.25735 32.4348 7.00546 31.2056 8.16491 28.9345C9.33679 26.6386 8.13717 22.8857 9.64196 20.8174C11.1468 18.7492 15.0948 18.7272 16.9124 16.9143C18.73 15.1015 18.7377 11.1582 20.8155 9.64387C22.8933 8.12952 26.6376 9.33871 28.9326 8.16778C31.2036 7.00834 32.4329 3.25927 34.8915 2.46047C37.307 1.67603 40.5012 3.98153 43.066 3.57879C45.5657 3.18752 47.8941 0 50.5019 0C53.1097 0 55.4382 3.1837 57.9359 3.57687C60.5007 3.97962 63.6949 1.67412 66.1104 2.45856C68.569 3.25736 69.7983 7.00642 72.0693 8.16587C74.3653 9.33679 78.1182 8.13717 80.1864 9.64196C82.2547 11.1468 82.2767 15.0948 84.0895 16.9124C85.9023 18.73 89.8456 18.7377 91.3599 20.8155C92.8743 22.8933 91.6651 26.6376 92.837 28.9326C93.9964 31.2036 97.7445 32.4329 98.5433 34.8915C99.3278 37.307 97.0223 40.5012 97.425 43.066C97.8163 45.5657 101 47.8941 101 50.5019Z" fill="white"/>
<path d="M50.5021 88.2171C71.3318 88.2171 88.2176 71.3313 88.2176 50.5016C88.2176 29.6719 71.3318 12.7861 50.5021 12.7861C29.6724 12.7861 12.7866 29.6719 12.7866 50.5016C12.7866 71.3313 29.6724 88.2171 50.5021 88.2171Z" fill="#222222"/>
<path d="M50.5018 84.6677C69.3708 84.6677 84.6672 69.3713 84.6672 50.5023C84.6672 31.6333 69.3708 16.3369 50.5018 16.3369C31.6328 16.3369 16.3364 31.6333 16.3364 50.5023C16.3364 69.3713 31.6328 84.6677 50.5018 84.6677Z" fill="white"/>
<path d="M71.8491 36.6668L46.8196 67.9862L44.1458 71.3325L40.7411 68.475L29.1533 58.7479L36.6763 51.2259L43.1547 58.9431L62.1535 29.6709L71.8491 36.6668Z" fill="#222222"/>
</svg>
