<svg width="135" height="131" viewBox="0 0 135 131" fill="none" xmlns="http://www.w3.org/2000/svg">
<path d="M32.9186 31.0642C33.0994 30.3894 33.0779 29.6763 32.8565 29.0137C32.6349 28.3471 32.2133 27.7376 31.5916 27.1851L31.5798 27.1747C30.9581 26.6196 30.301 26.2687 29.6083 26.122C28.9208 25.9761 28.2057 26.0331 27.5499 26.2859C26.8699 26.5415 26.2386 26.9986 25.6561 27.6573L24.5093 28.9464L22.3066 31.4181L30.7217 38.9059L32.9218 36.4328L30.6231 34.3888L31.7699 33.0997C32.355 32.4428 32.7379 31.7643 32.9186 31.0642ZM29.4215 32.0647L28.7985 32.7647L26.3672 30.6005L26.9896 29.9011C27.3527 29.4923 27.7373 29.2616 28.1435 29.2089C28.5497 29.1562 28.9548 29.3086 29.3588 29.666L29.3706 29.6765C29.7716 30.033 29.9709 30.4177 29.9688 30.8304C29.9666 31.2431 29.7842 31.6545 29.4215 32.0647Z" fill="white"/>
<path d="M43.9451 20.5145C43.9092 19.8399 43.6961 19.1867 43.3273 18.6207L43.3188 18.6076C42.8708 17.9058 42.3484 17.4052 41.7515 17.1056C41.1547 16.8061 40.4964 16.7103 39.7767 16.8183C39.0571 16.9254 38.2891 17.2402 37.4728 17.7626L33.1941 20.4897L39.2484 29.9875L42.0395 28.2113L40.051 25.0917L40.8405 24.5882L40.9059 24.5457L40.9653 24.5085L44.4551 26.672L47.5747 24.6829L43.5187 22.2947C43.8369 21.7771 43.9791 21.1837 43.9451 20.5145ZM40.6655 21.4758C40.5741 21.8363 40.3399 22.1369 39.9629 22.3776L38.7965 23.1175L37.2985 20.7666L38.4635 20.0241C38.8327 19.789 39.2027 19.706 39.5736 19.7753C39.9446 19.8445 40.2406 20.0524 40.4618 20.3989L40.4703 20.412C40.6906 20.7611 40.7552 21.1157 40.6642 21.4758H40.6655Z" fill="white"/>
<path d="M52.6561 20.1323L52.1291 18.4246L56.2831 17.1414L55.5647 14.8146L51.4101 16.0972L50.8805 14.3817L55.3113 13.0142L54.5375 10.5078L46.9446 12.8522L50.2673 23.615L57.8602 21.2706L57.0863 18.7642L52.6561 20.1323Z" fill="white"/>
<path d="M67.521 15.889L67.4662 15.8877L65.0852 9.14309L61.2603 9.08105L61.0781 20.3434L63.9659 20.3904L64.0717 13.8652L64.1233 13.8665L66.5336 20.4322L68.3053 20.4609L70.9273 13.9769L70.9789 13.9776L70.8731 20.5027L73.7608 20.5491L73.9437 9.28676L70.1195 9.22472L67.521 15.889Z" fill="white"/>
<path d="M80 10.5814L77.1587 21.4814L80.3613 22.3163L83.2026 11.4162L80 10.5814Z" fill="white"/>
<path d="M94.8688 16.3183L91.6643 22.4569C91.3891 22.9832 91.0537 23.3219 90.658 23.473C90.2622 23.6241 89.8245 23.5744 89.3447 23.3241C88.8693 23.076 88.5793 22.7455 88.4748 22.3328C88.3704 21.9201 88.4555 21.4508 88.7302 20.9248L91.9347 14.7863L89.0012 13.2568L85.6446 19.6854C85.2497 20.4416 85.0893 21.1959 85.1633 21.9482C85.2373 22.7005 85.524 23.402 86.0233 24.0529C86.5231 24.7059 87.2112 25.2604 88.0876 25.7162C88.9775 26.1803 89.8332 26.4304 90.6547 26.4665C91.4762 26.5027 92.2163 26.3353 92.875 25.9644C93.532 25.5939 94.0568 25.0327 94.4495 24.2808L97.8061 17.8523L94.8688 16.3183Z" fill="white"/>
<path d="M103.084 31.068L103.046 31.0288L106.141 24.58L103.485 21.8281L95.3806 29.6509L97.3861 31.7289L102.081 27.1968L102.117 27.234L99.1696 33.577L100.401 34.8517L106.843 32.1305L106.879 32.1677L102.184 36.6998L104.189 38.7778L112.294 30.955L109.638 28.2031L103.084 31.068Z" fill="white"/>
<path d="M130.355 45.3047H4.37675C2.93049 45.3047 1.75806 46.4771 1.75806 47.9234V83.0766C1.75806 84.5228 2.93049 85.6953 4.37675 85.6953H130.355C131.801 85.6953 132.974 84.5228 132.974 83.0766V47.9234C132.974 46.4771 131.801 45.3047 130.355 45.3047Z" fill="white"/>
<path d="M130.283 43.6884H129.148C128.71 42.449 128.233 41.2204 127.718 40.0027C121.061 24.3017 108.562 11.8026 92.8611 5.14531C84.7856 1.73186 76.2053 0 67.3651 0C58.5249 0 49.9452 1.73186 41.8697 5.14727C26.1685 11.8041 13.6695 24.3033 7.01301 40.0046C6.49754 41.2236 6.02082 42.4522 5.58285 43.6904H4.3055C3.73985 43.6903 3.17973 43.8017 2.65715 44.0182C2.13458 44.2347 1.65979 44.5521 1.25994 44.9522C0.860083 45.3523 0.543 45.8273 0.326813 46.35C0.110625 46.8727 -0.000427811 47.4329 1.23847e-06 47.9985V83.1517C0.000866915 84.2929 0.454905 85.387 1.26229 86.1936C2.06967 87.0001 3.1643 87.453 4.3055 87.4526H5.63444C6.05848 88.6438 6.51822 89.8247 7.01366 90.9954C13.6702 106.697 26.1691 119.196 41.8704 125.853C49.9459 129.268 58.5229 131 67.3657 131C76.2086 131 84.7863 129.268 92.8618 125.853C108.563 119.195 121.061 106.696 127.718 90.9954C128.213 89.8242 128.673 88.6433 129.098 87.4526H130.284C130.849 87.4527 131.409 87.3414 131.931 87.1252C132.453 86.9089 132.928 86.5918 133.327 86.1921C133.727 85.7924 134.044 85.3179 134.26 84.7957C134.477 84.2734 134.588 83.7137 134.588 83.1484V47.9985C134.589 47.4327 134.478 46.8723 134.262 46.3494C134.046 45.8265 133.729 45.3513 133.329 44.951C132.929 44.5506 132.454 44.2331 131.932 44.0164C131.409 43.7998 130.849 43.6883 130.283 43.6884ZM7.67323 40.2835C14.2579 24.7545 26.6201 12.3925 42.1492 5.80815C50.1359 2.42997 58.6196 0.718345 67.3651 0.718345C76.1106 0.718345 84.5949 2.43062 92.5816 5.81206C108.111 12.3962 120.473 24.7583 127.057 40.2874C127.534 41.4115 127.976 42.5452 128.383 43.6884H127.469C127.094 42.6575 126.692 41.6344 126.262 40.6191C119.766 25.2969 107.569 13.0992 92.2473 6.60224C84.3651 3.27174 75.9937 1.5784 67.3664 1.5784C58.7391 1.5784 50.3671 3.26847 42.4855 6.60224C27.1627 13.0987 14.9647 25.2964 8.46798 40.6191C8.03828 41.6357 7.63579 42.6588 7.26051 43.6884H6.34625C6.75506 42.5452 7.19738 41.4102 7.67323 40.2835ZM95.9271 36.9399C91.6564 32.6755 86.4849 29.4215 80.7923 27.4168C75.0997 25.412 69.0305 24.7074 63.03 25.3546C57.0295 26.0019 51.2501 27.9845 46.1159 31.157C40.9818 34.3295 36.6231 38.6114 33.3599 43.6884H32.4241C36.1302 37.7652 41.2813 32.8813 47.3934 29.4956C53.5055 26.11 60.3779 24.3337 67.3651 24.3337C74.3522 24.3337 81.2247 26.11 87.3368 29.4956C93.4489 32.8813 98.6 37.7652 102.306 43.6884H101.371C99.8035 41.2503 97.9784 38.9877 95.9271 36.9399ZM97.0171 43.6884H37.7138C41.1369 39.0427 45.6038 35.2662 50.7543 32.6636C55.9047 30.061 61.5947 28.705 67.3654 28.705C73.1361 28.705 78.8261 30.061 83.9766 32.6636C89.1271 35.2662 93.5939 39.0427 97.0171 43.6884ZM96.991 35.8722C92.5035 31.3918 87.0583 27.9876 81.065 25.9157C75.0718 23.8438 68.6867 23.1583 62.3903 23.9108C56.0938 24.6632 50.05 26.8339 44.7138 30.2596C39.3775 33.6853 34.8877 38.2768 31.5824 43.6884H11.0919C11.3096 43.1277 11.5362 42.5693 11.7717 42.0134C17.9041 27.551 29.4173 16.0381 43.8798 9.90598C51.3179 6.76028 59.2197 5.16555 67.3651 5.16555C75.5105 5.16555 83.4123 6.76028 90.8498 9.90598C105.313 16.0383 116.827 27.552 122.959 42.0153C123.195 42.5717 123.421 43.1301 123.639 43.6904H103.148C101.414 40.8496 99.3466 38.2257 96.991 35.8741V35.8722ZM127.057 90.7146C120.473 106.244 108.111 118.606 92.5816 125.19C84.5949 128.567 76.1113 130.284 67.3651 130.284C58.6189 130.284 50.1359 128.571 42.1492 125.19C26.6201 118.606 14.2579 106.244 7.67323 90.7146C7.21741 89.6357 6.79184 88.5473 6.39654 87.4494H7.31079C7.6704 88.4333 8.05548 89.4098 8.46602 90.3789C14.9622 105.702 27.1599 117.901 42.4829 124.398C50.3658 127.728 58.7371 129.422 67.3638 129.422C75.9905 129.422 84.3637 127.732 92.2446 124.398C107.568 117.902 119.766 105.704 126.263 90.3809C126.673 89.4117 127.058 88.4352 127.418 87.4513H128.332C127.939 88.5489 127.514 89.6373 127.057 90.7165V90.7146ZM38.805 94.0581C43.0657 98.3119 48.2228 101.56 53.8996 103.566C59.5764 105.571 65.6295 106.283 71.6167 105.65C77.604 105.017 83.3741 103.054 88.5058 99.9055C93.6374 96.7568 98.0009 92.5016 101.278 87.4507H102.215C98.501 93.3352 93.3571 98.1833 87.2633 101.543C81.1695 104.903 74.3241 106.665 67.3654 106.665C60.4067 106.665 53.5614 104.903 47.4675 101.543C41.3737 98.1833 36.2298 93.3352 32.5156 87.4507H33.4533C34.9996 89.8361 36.7934 92.0515 38.805 94.0601V94.0581ZM37.8202 87.4507H96.9106C92.9882 92.7174 87.7353 96.8458 81.6908 99.4124C74.9446 102.266 67.4999 103.04 60.311 101.634C53.1222 100.229 46.5169 96.7084 41.3421 91.5243C40.0708 90.2544 38.8937 88.8936 37.8202 87.4526V87.4507ZM37.7412 95.1259C42.2182 99.597 47.6492 102.997 53.627 105.07C59.6049 107.144 65.9746 107.838 72.2587 107.1C78.5428 106.361 84.5783 104.21 89.9128 100.808C95.2474 97.4054 99.7426 92.8396 103.062 87.4526H123.584C123.383 87.9659 123.175 88.4766 122.96 88.9846C116.828 103.448 105.314 114.962 90.8511 121.094C83.4136 124.24 75.5124 125.834 67.3664 125.834C59.2204 125.834 51.3179 124.24 43.8798 121.094C29.4164 114.962 17.9027 103.448 11.7704 88.9846C11.5527 88.4762 11.3448 87.9655 11.1468 87.4526H31.6679C33.3855 90.2389 35.4238 92.8143 37.7412 95.1259ZM133.477 83.0766C133.476 83.9041 133.147 84.6975 132.562 85.2826C131.977 85.8678 131.184 86.1968 130.356 86.1975H4.37603C3.54864 86.1966 2.75541 85.8675 2.17042 85.2824C1.58543 84.6973 1.25649 83.904 1.2558 83.0766V47.9234C1.25649 47.096 1.58543 46.3027 2.17042 45.7176C2.75541 45.1325 3.54864 44.8034 4.37603 44.8025H130.354C131.182 44.8027 131.976 45.1315 132.561 45.7167C133.147 46.3019 133.476 47.0956 133.477 47.9234V83.0766Z" fill="white"/>
<path d="M53.7427 38.4759L52.9022 36.7734L52.0617 38.4759L50.1836 38.7489L51.5426 40.0739L51.2219 41.9449L52.9022 41.0613L54.5825 41.9449L54.2618 40.0739L55.6215 38.7489L53.7427 38.4759Z" fill="white"/>
<path d="M82.6684 38.4759L81.8286 36.7734L80.9882 38.4759L79.1094 38.7489L80.469 40.0739L80.1477 41.9449L81.8286 41.0613L83.5089 41.9449L83.1876 40.0739L84.5472 38.7489L82.6684 38.4759Z" fill="white"/>
<path d="M69.1446 34.5976L67.365 30.9922L65.5862 34.5976L61.6072 35.1762L64.4864 37.9823L63.8066 41.945L67.365 40.074L70.9241 41.945L70.2443 37.9823L73.1236 35.1762L69.1446 34.5976Z" fill="white"/>
<path d="M52.0617 92.8837L52.9022 94.5862L53.7427 92.8837L55.6215 92.6107L54.2618 91.285L54.5825 89.4141L52.9022 90.2976L51.2219 89.4141L51.5426 91.285L50.1836 92.6107L52.0617 92.8837Z" fill="white"/>
<path d="M80.9882 92.8837L81.8286 94.5862L82.6684 92.8837L84.5472 92.6107L83.1876 91.285L83.5089 89.4141L81.8286 90.2976L80.1477 89.4141L80.469 91.285L79.1094 92.6107L80.9882 92.8837Z" fill="white"/>
<path d="M65.5862 96.7614L67.365 100.367L69.1446 96.7614L73.1236 96.1835L70.2443 93.3767L70.9241 89.4141L67.365 91.285L63.8066 89.4141L64.4864 93.3767L61.6072 96.1835L65.5862 96.7614Z" fill="white"/>
<path d="M101.812 99.9358C101.633 100.611 101.655 101.324 101.878 101.986C102.099 102.654 102.521 103.263 103.143 103.815L103.154 103.825C103.776 104.379 104.433 104.728 105.126 104.874C105.813 105.02 106.529 104.963 107.184 104.71C107.864 104.454 108.496 103.997 109.078 103.338L110.225 102.049L112.425 99.5766L104.01 92.0889L101.81 94.5613L104.108 96.6059L102.96 97.8951C102.376 98.5559 101.993 99.2362 101.812 99.9358ZM105.309 98.936L105.932 98.2359L108.364 100.399L107.741 101.1C107.378 101.508 106.994 101.739 106.587 101.792C106.181 101.845 105.776 101.692 105.372 101.335L105.36 101.324C104.959 100.968 104.76 100.583 104.762 100.17C104.764 99.7575 104.947 99.3461 105.309 98.936Z" fill="white"/>
<path d="M90.7872 110.486C90.823 111.16 91.0361 111.814 91.4049 112.38L91.4134 112.393C91.8614 113.095 92.3838 113.596 92.9807 113.895C93.5776 114.194 94.2359 114.29 94.9555 114.183C95.6747 114.076 96.4423 113.762 97.2581 113.242L101.537 110.515L95.4825 101.017L92.6914 102.789L94.6799 105.909L93.8904 106.413L93.8251 106.454L93.7657 106.492L90.2765 104.329L87.1562 106.318L91.2129 108.703C90.8947 109.222 90.7528 109.816 90.7872 110.486ZM94.0667 109.524C94.1582 109.164 94.3924 108.863 94.7694 108.623L95.9344 107.88L97.4325 110.231L96.2675 110.974C95.8983 111.209 95.5282 111.292 95.1573 111.222C94.7864 111.153 94.4903 110.945 94.2692 110.599L94.2607 110.586C94.0404 110.239 93.9757 109.885 94.0667 109.524Z" fill="white"/>
<path d="M82.0749 110.868L82.6019 112.576L78.4479 113.859L79.1663 116.186L83.3203 114.904L83.8499 116.619L79.4197 117.987L80.1935 120.493L87.7864 118.149L84.4638 107.386L76.8708 109.73L77.644 112.236L82.0749 110.868Z" fill="white"/>
<path d="M67.2095 115.111L67.2644 115.112L69.6454 121.857L73.4702 121.919L73.6524 110.656L70.7647 110.609L70.6589 117.134L70.6073 117.133L68.1969 110.568L66.4252 110.539L63.8033 117.023L63.7517 117.022L63.8575 110.497L60.9691 110.45L60.7869 121.713L64.6111 121.775L67.2095 115.111Z" fill="white"/>
<path d="M54.364 108.675L51.5227 119.575L54.7253 120.41L57.5666 109.51L54.364 108.675Z" fill="white"/>
<path d="M39.8622 114.682L43.0667 108.544C43.3419 108.018 43.6773 107.679 44.0731 107.528C44.4688 107.377 44.9066 107.427 45.3863 107.677C45.8617 107.925 46.1517 108.255 46.2562 108.668C46.3607 109.08 46.2755 109.549 46.0008 110.076L42.7964 116.214L45.7305 117.744L49.0864 111.315C49.4813 110.558 49.6417 109.804 49.5677 109.052C49.4937 108.3 49.207 107.599 48.7077 106.948C48.2079 106.295 47.5198 105.74 46.6434 105.284C45.7531 104.819 44.8974 104.569 44.0763 104.534C43.2552 104.499 42.5151 104.666 41.856 105.036C41.2025 105.41 40.6799 105.972 40.288 106.722L36.9314 113.15L39.8622 114.682Z" fill="white"/>
<path d="M31.6464 99.9305L31.6849 99.9703L28.5895 106.418L31.2454 109.17L39.3503 101.348L37.3448 99.2696L32.6488 103.802L32.6129 103.764L35.5607 97.4222L34.3304 96.1468L27.8875 98.8687L27.8515 98.8314L32.5469 94.2993L30.5408 92.2207L22.4365 100.043L25.0924 102.796L31.6464 99.9305Z" fill="white"/>
<path d="M24.9782 57.0976C23.5963 56.3288 21.9594 55.9443 20.0673 55.9443C18.1918 55.9443 16.5657 56.3266 15.1891 57.0911C13.8253 57.842 12.7142 58.9797 11.9957 60.3609C11.2434 61.7762 10.8675 63.4552 10.8679 65.3978V65.4232C10.8679 67.3662 11.2417 69.0474 11.9892 70.4667C12.7027 71.8507 13.8121 72.9911 15.176 73.7423C16.5535 74.5072 18.1839 74.8895 20.0673 74.8891C21.1379 74.8998 22.2045 74.7568 23.2346 74.4646L24.2494 75.928H28.963L26.6121 72.5381C27.2408 71.9357 27.7673 71.235 28.1709 70.4634C28.9188 69.0489 29.2928 67.3699 29.2928 65.4265V65.401C29.2928 63.4584 28.9188 61.7823 28.1709 60.3726C27.4538 58.9894 26.3427 57.8497 24.9782 57.0976ZM22.9564 67.2635H18.2427L20.4768 70.4869C20.3462 70.5 20.2077 70.5072 20.0673 70.5072C19.3159 70.5072 18.6613 70.3023 18.1036 69.8926C17.5459 69.483 17.1129 68.8978 16.8047 68.1373C16.496 67.3771 16.3417 66.4733 16.3417 65.4258V65.4004C16.3417 64.3442 16.496 63.4382 16.8047 62.6824C17.1134 61.9266 17.5487 61.3459 18.1108 60.9401C18.6724 60.5343 19.3255 60.3315 20.0699 60.3315C20.8305 60.3315 21.4916 60.5363 22.0532 60.946C22.6148 61.3557 23.0502 61.9386 23.3593 62.6948C23.6675 63.451 23.8216 64.3529 23.8216 65.4004V65.4258C23.8216 66.3836 23.691 67.223 23.4298 67.944L22.9564 67.2635Z" fill="#222222"/>
<path d="M42.1166 67.5136C42.1166 68.4762 41.8885 69.2163 41.4322 69.7339C40.976 70.2516 40.3086 70.5093 39.43 70.5071C38.5593 70.5071 37.8941 70.2494 37.4343 69.7339C36.9746 69.2184 36.7445 68.4783 36.7441 67.5136V56.2734H31.3708V68.0465C31.3708 69.4318 31.7067 70.6377 32.3785 71.6643C33.0503 72.6909 33.99 73.485 35.1977 74.0466C36.4058 74.6082 37.8124 74.889 39.4176 74.889C41.0476 74.889 42.4669 74.606 43.6754 74.0401C44.884 73.4741 45.8229 72.6776 46.492 71.6506C47.1585 70.624 47.492 69.4224 47.4925 68.0458V56.2734H42.1166V67.5136Z" fill="#222222"/>
<path d="M59.4138 56.2738H54.3449L48.3767 74.5589H54.0281L54.9816 70.9202H60.4567L61.4068 74.5576H67.0583L61.0901 56.2725L59.4138 56.2738ZM55.9677 67.1325L57.6656 60.6315H57.7674L59.4653 67.1325H55.9677Z" fill="#222222"/>
<path d="M74.0752 56.2734H68.7026V74.5586H81.2476V70.3014H74.0752V56.2734Z" fill="#222222"/>
<path d="M88.6484 56.2734H83.2751V74.5592H88.6484V56.2734Z" fill="#222222"/>
<path d="M90.4854 60.5313H95.3009V74.5586H100.673V60.5313H105.489V56.2734H90.4854V60.5313Z" fill="#222222"/>
<path d="M118.63 56.2734L115.424 63.6868H115.323L112.116 56.2734H106.439L112.687 68.7681V74.5586H118.059V68.7681L124.306 56.2734H118.63Z" fill="#222222"/>
</svg>
