<svg width="123" height="123" viewBox="0 0 123 123" fill="none" xmlns="http://www.w3.org/2000/svg">
<path d="M75.6143 51.25C80.5676 51.25 84.583 55.2654 84.583 60.2188V84.5574C84.583 97.2971 74.2551 107.625 61.5154 107.625C48.7752 107.625 38.4474 97.2971 38.4474 84.5574V60.2188C38.4474 55.2654 42.4628 51.25 47.4161 51.25H75.6143ZM36.5478 51.2452C34.7569 53.4117 33.6013 56.1229 33.3667 59.0933L33.3224 60.2188V84.5574C33.3224 88.8962 34.3026 93.0065 36.0537 96.678C34.3671 97.1341 32.5898 97.375 30.7564 97.375C19.431 97.375 10.25 88.1941 10.25 76.8689V60.2188C10.25 55.513 13.8739 51.6539 18.4832 51.2797L19.2188 51.25L36.5478 51.2452ZM86.4828 51.2452L103.781 51.25C108.735 51.25 112.75 55.2654 112.75 60.2188V76.875C112.75 88.1966 103.572 97.375 92.25 97.375C90.4234 97.375 88.6523 97.1362 86.9666 96.6877C88.5072 93.4697 89.4507 89.9192 89.6624 86.1738L89.708 84.5574V60.2188C89.708 56.8091 88.4975 53.6828 86.4828 51.2452ZM61.5 15.375C69.9916 15.375 76.875 22.2586 76.875 30.75C76.875 39.2414 69.9916 46.125 61.5 46.125C53.0084 46.125 46.125 39.2414 46.125 30.75C46.125 22.2586 53.0084 15.375 61.5 15.375ZM94.8125 20.5C101.889 20.5 107.625 26.2364 107.625 33.3125C107.625 40.3886 101.889 46.125 94.8125 46.125C87.7364 46.125 82 40.3886 82 33.3125C82 26.2364 87.7364 20.5 94.8125 20.5ZM28.1875 20.5C35.2636 20.5 41 26.2364 41 33.3125C41 40.3886 35.2636 46.125 28.1875 46.125C21.1114 46.125 15.375 40.3886 15.375 33.3125C15.375 26.2364 21.1114 20.5 28.1875 20.5Z" fill="white"/>
</svg>
