<svg width="62" height="73" viewBox="0 0 62 73" fill="none" xmlns="http://www.w3.org/2000/svg">
<path d="M51.771 12H9.651C7.635 12 6 13.596 6 15.563V58.176C6 60.142 7.635 61.738 9.651 61.738H51.771C53.79 61.738 55.425 60.141 55.425 58.176V15.563C55.425 13.595 53.789 12 51.771 12ZM20.981 53.637H13.516V31.178H20.981V53.637ZM17.249 28.11H17.199C14.695 28.11 13.075 26.385 13.075 24.23C13.075 22.027 14.745 20.35 17.298 20.35C19.852 20.35 21.423 22.027 21.473 24.23C21.473 26.385 19.851 28.11 17.249 28.11ZM47.9 53.637H40.435V41.619C40.435 38.601 39.355 36.541 36.654 36.541C34.592 36.541 33.364 37.93 32.823 39.272C32.626 39.751 32.578 40.421 32.578 41.093V53.636H25.113C25.113 53.636 25.211 33.282 25.113 31.177H32.578V34.356C33.57 32.826 35.344 30.647 39.307 30.647C44.218 30.647 47.901 33.858 47.901 40.757L47.9 53.637Z" fill="black"/>
</svg>
