<svg width="43" height="43" viewBox="0 0 43 43" fill="none" xmlns="http://www.w3.org/2000/svg">
<g clip-path="url(#clip0_294_3687)">
<path d="M16.125 33.5938C16.3019 33.5948 16.4772 33.5609 16.6409 33.494C16.8046 33.4271 16.9535 33.3286 17.0791 33.2041L27.8291 22.4541C27.955 22.3291 28.055 22.1805 28.1232 22.0168C28.1914 21.853 28.2266 21.6774 28.2266 21.5C28.2266 21.3226 28.1914 21.147 28.1232 20.9832C28.055 20.8195 27.955 20.6709 27.8291 20.5459L17.0791 9.79594C16.826 9.54291 16.4829 9.40076 16.125 9.40076C15.7672 9.40076 15.424 9.54291 15.171 9.79594C14.9179 10.049 14.7758 10.3922 14.7758 10.75C14.7758 11.1078 14.9179 11.451 15.171 11.7041L24.9803 21.5L15.171 31.2959C15.045 31.4209 14.945 31.5695 14.8768 31.7332C14.8086 31.897 14.7735 32.0726 14.7735 32.25C14.7735 32.4274 14.8086 32.603 14.8768 32.7668C14.945 32.9305 15.045 33.0791 15.171 33.2041C15.2965 33.3286 15.4454 33.4271 15.6091 33.494C15.7729 33.5609 15.9482 33.5948 16.125 33.5938Z" fill="#FF983C"/>
</g>
<defs>
<clipPath id="clip0_294_3687">
<rect width="43" height="43" rx="15" transform="matrix(-1 0 0 1 43 0)" fill="white"/>
</clipPath>
</defs>
</svg>
